999
DXF from OpenSCAD
  0
SECTION
  2
HEADER
  9
$ACADVER
  1
AC1006
  9
$INSBASE
 10
0.0
 20
0.0
 30
0.0
  9
$EXTMIN
 10
0.00124305
 20
0.000310838
  9
$EXTMAX
 10
104
 20
82.9997
  9
$LINMIN
 10
0.00124305
 20
0.000310838
  9
$LINMAX
 10
104
 20
82.9997
  0
ENDSEC
  0
SECTION
  2
TABLES
  0
TABLE
  2
LTYPE
 70
1
  0
LTYPE
  2
CONTINUOUS
 70
64
  3
Solid line
 72
65
 73
0
 40
0.000000
  0
ENDTAB
  0
TABLE
  2
LAYER
 70
6
  0
LAYER
  2
0
 70
64
 62
7
  6
CONTINUOUS
  0
ENDTAB
  0
TABLE
  2
STYLE
 70
0
  0
ENDTAB
  0
ENDSEC
  0
SECTION
  2
BLOCKS
  0
ENDSEC
  0
SECTION
  2
ENTITIES
  0
LWPOLYLINE
100
AcDbEntity
  8
0
100
AcDbPolyline
 90
66
 70
1
 10
103.075
 20
0.00279617
 10
103.174
 20
0.0151923
 10
103.271
 20
0.0373757
 10
103.365
 20
0.0691262
 10
103.456
 20
0.110128
 10
103.543
 20
0.159974
 10
103.623
 20
0.218168
 10
103.698
 20
0.284133
 10
103.766
 20
0.357212
 10
103.826
 20
0.43668
 10
103.878
 20
0.521746
 10
103.921
 20
0.611565
 10
103.956
 20
0.705245
 10
103.98
 20
0.801854
 10
103.995
 20
0.900432
 10
104
 20
1
 10
104
 20
82
 10
103.995
 20
82.0996
 10
103.98
 20
82.1981
 10
103.956
 20
82.2948
 10
103.921
 20
82.3884
 10
103.878
 20
82.4783
 10
103.826
 20
82.5633
 10
103.766
 20
82.6428
 10
103.698
 20
82.7159
 10
103.623
 20
82.7818
 10
103.543
 20
82.84
 10
103.456
 20
82.8899
 10
103.365
 20
82.9309
 10
103.271
 20
82.9626
 10
103.174
 20
82.9848
 10
103.075
 20
82.9972
 10
102.975
 20
82.9997
 10
0.975069
 20
82.9997
 10
0.875656
 20
82.9922
 10
0.777479
 20
82.9749
 10
0.681513
 20
82.9479
 10
0.588713
 20
82.9115
 10
0.5
 20
82.866
 10
0.416256
 20
82.8119
 10
0.338314
 20
82.7498
 10
0.266948
 20
82.6802
 10
0.202868
 20
82.6038
 10
0.146709
 20
82.5214
 10
0.0990312
 20
82.4339
 10
0.0603074
 20
82.342
 10
0.0309227
 20
82.2468
 10
0.0111692
 20
82.149
 10
0.00124305
 20
82.0498
 10
0.00124305
 20
0.950154
 10
0.0111692
 20
0.850958
 10
0.0309227
 20
0.753243
 10
0.0603074
 20
0.65798
 10
0.0990312
 20
0.566116
 10
0.146709
 20
0.478565
 10
0.202868
 20
0.396196
 10
0.266948
 20
0.319827
 10
0.338314
 20
0.250219
 10
0.416256
 20
0.188062
 10
0.5
 20
0.133975
 10
0.588713
 20
0.0884941
 10
0.681513
 20
0.0520726
 10
0.777479
 20
0.0250721
 10
0.875656
 20
0.00776082
 10
0.975069
 20
0.000310838
 10
102.975
 20
0.000310838
  0
ENDSEC
  0
EOF
